<?xml version="1.0" standalone="no"?><!DOCTYPE svg PUBLIC "-//W3C//DTD SVG 1.1//EN" "http://www.w3.org/Graphics/SVG/1.1/DTD/svg11.dtd"><svg t="1665560176879" class="icon" viewBox="0 0 1024 1024" version="1.1" xmlns="http://www.w3.org/2000/svg" p-id="2555" width="32" height="32" xmlns:xlink="http://www.w3.org/1999/xlink"><path d="M697.856 32l-96 96H212.352c-27.744 0-49.792 19.616-52.16 43.712L160 176v672c0 24.576 20.48 45.536 47.52 47.808l4.832 0.192h599.296c27.744 0 49.792-19.616 52.16-43.712L864 848V454.112l95.168-95.104c0.256 1.44 0.48 2.88 0.64 4.384L960 368v480c0 77.76-63.136 140.32-141.44 143.84l-6.912 0.16H212.352c-79.136 0-144.512-60.384-148.16-137.184L64 848v-672c0-77.76 63.136-140.32 141.44-143.84L212.32 32h485.504z m35.616 122.72l135.776 135.776-369.376 369.376-163.872 28.128 28.128-163.872L733.44 154.72zM944 80a96 96 0 0 1 4.32 131.168l-4.32 4.608-29.504 29.44-135.744-135.744 29.472-29.472a96 96 0 0 1 135.776 0z" p-id="2556"></path></svg>